<mxfile host="app.diagrams.net" modified="2023-10-26T19:56:37.170Z" agent="Mozilla/5.0 (Windows NT 10.0; Win64; x64) AppleWebKit/537.36 (KHTML, like Gecko) Chrome/118.0.0.0 Safari/537.36" etag="g74YZvojEZJS_i4oFWji" version="22.0.8" type="device">
  <diagram name="Page-1" id="8Yk5ZtrIcx5gpp1E0l82">
    <mxGraphModel dx="3870" dy="1040" grid="1" gridSize="10" guides="1" tooltips="1" connect="1" arrows="1" fold="1" page="1" pageScale="1" pageWidth="850" pageHeight="1100" math="0" shadow="0">
      <root>
        <mxCell id="0" />
        <mxCell id="1" parent="0" />
        <mxCell id="r6hjS2Dqo3O1j0TEXytj-4" style="edgeStyle=orthogonalEdgeStyle;rounded=0;orthogonalLoop=1;jettySize=auto;html=1;exitX=1;exitY=0.5;exitDx=0;exitDy=0;entryX=0;entryY=0.5;entryDx=0;entryDy=0;" edge="1" parent="1" source="r6hjS2Dqo3O1j0TEXytj-119" target="r6hjS2Dqo3O1j0TEXytj-23">
          <mxGeometry relative="1" as="geometry">
            <mxPoint x="-180" y="185.38461538461524" as="targetPoint" />
          </mxGeometry>
        </mxCell>
        <mxCell id="r6hjS2Dqo3O1j0TEXytj-123" style="edgeStyle=orthogonalEdgeStyle;rounded=0;orthogonalLoop=1;jettySize=auto;html=1;exitX=1;exitY=0.5;exitDx=0;exitDy=0;entryX=0;entryY=0.5;entryDx=0;entryDy=0;" edge="1" parent="1" source="r6hjS2Dqo3O1j0TEXytj-5" target="r6hjS2Dqo3O1j0TEXytj-116">
          <mxGeometry relative="1" as="geometry" />
        </mxCell>
        <mxCell id="r6hjS2Dqo3O1j0TEXytj-5" value="FILL REGISTRATION DETAILS" style="ellipse;whiteSpace=wrap;html=1;aspect=fixed;" vertex="1" parent="1">
          <mxGeometry x="-345" y="140" width="90" height="90" as="geometry" />
        </mxCell>
        <mxCell id="r6hjS2Dqo3O1j0TEXytj-6" value="" style="endArrow=none;html=1;rounded=0;exitX=0.051;exitY=0.274;exitDx=0;exitDy=0;exitPerimeter=0;entryX=0.972;entryY=0.286;entryDx=0;entryDy=0;entryPerimeter=0;" edge="1" parent="1" source="r6hjS2Dqo3O1j0TEXytj-5" target="r6hjS2Dqo3O1j0TEXytj-5">
          <mxGeometry width="50" height="50" relative="1" as="geometry">
            <mxPoint x="-340" y="170" as="sourcePoint" />
            <mxPoint x="-260" y="170" as="targetPoint" />
          </mxGeometry>
        </mxCell>
        <mxCell id="r6hjS2Dqo3O1j0TEXytj-7" value="0.1.1" style="text;html=1;strokeColor=none;fillColor=none;align=center;verticalAlign=middle;whiteSpace=wrap;rounded=0;" vertex="1" parent="1">
          <mxGeometry x="-330" y="140" width="60" height="30" as="geometry" />
        </mxCell>
        <mxCell id="r6hjS2Dqo3O1j0TEXytj-141" style="edgeStyle=orthogonalEdgeStyle;rounded=0;orthogonalLoop=1;jettySize=auto;html=1;exitX=1;exitY=0.5;exitDx=0;exitDy=0;entryX=0;entryY=0.5;entryDx=0;entryDy=0;" edge="1" parent="1" source="r6hjS2Dqo3O1j0TEXytj-8" target="r6hjS2Dqo3O1j0TEXytj-133">
          <mxGeometry relative="1" as="geometry" />
        </mxCell>
        <mxCell id="r6hjS2Dqo3O1j0TEXytj-8" value="FILL LOGIN CREDENTIAL" style="ellipse;whiteSpace=wrap;html=1;aspect=fixed;" vertex="1" parent="1">
          <mxGeometry x="-344" y="271" width="90" height="90" as="geometry" />
        </mxCell>
        <mxCell id="r6hjS2Dqo3O1j0TEXytj-9" value="" style="endArrow=none;html=1;rounded=0;exitX=0.051;exitY=0.274;exitDx=0;exitDy=0;exitPerimeter=0;entryX=0.972;entryY=0.286;entryDx=0;entryDy=0;entryPerimeter=0;" edge="1" parent="1" source="r6hjS2Dqo3O1j0TEXytj-8" target="r6hjS2Dqo3O1j0TEXytj-8">
          <mxGeometry width="50" height="50" relative="1" as="geometry">
            <mxPoint x="-339" y="301" as="sourcePoint" />
            <mxPoint x="-259" y="301" as="targetPoint" />
          </mxGeometry>
        </mxCell>
        <mxCell id="r6hjS2Dqo3O1j0TEXytj-10" value="0.2.1" style="text;html=1;strokeColor=none;fillColor=none;align=center;verticalAlign=middle;whiteSpace=wrap;rounded=0;" vertex="1" parent="1">
          <mxGeometry x="-329" y="271" width="60" height="30" as="geometry" />
        </mxCell>
        <mxCell id="r6hjS2Dqo3O1j0TEXytj-18" style="edgeStyle=orthogonalEdgeStyle;rounded=0;orthogonalLoop=1;jettySize=auto;html=1;exitX=1;exitY=0.5;exitDx=0;exitDy=0;entryX=0;entryY=0.5;entryDx=0;entryDy=0;" edge="1" parent="1" target="r6hjS2Dqo3O1j0TEXytj-5">
          <mxGeometry relative="1" as="geometry">
            <mxPoint x="-620" y="185" as="sourcePoint" />
          </mxGeometry>
        </mxCell>
        <mxCell id="r6hjS2Dqo3O1j0TEXytj-19" style="edgeStyle=orthogonalEdgeStyle;rounded=0;orthogonalLoop=1;jettySize=auto;html=1;exitX=1;exitY=0.75;exitDx=0;exitDy=0;entryX=0;entryY=0.5;entryDx=0;entryDy=0;" edge="1" parent="1" target="r6hjS2Dqo3O1j0TEXytj-8">
          <mxGeometry relative="1" as="geometry">
            <mxPoint x="-620" y="227.5" as="sourcePoint" />
            <Array as="points">
              <mxPoint x="-620" y="200" />
              <mxPoint x="-400" y="200" />
              <mxPoint x="-400" y="316" />
            </Array>
          </mxGeometry>
        </mxCell>
        <mxCell id="r6hjS2Dqo3O1j0TEXytj-21" style="edgeStyle=orthogonalEdgeStyle;rounded=0;orthogonalLoop=1;jettySize=auto;html=1;exitX=1;exitY=1;exitDx=0;exitDy=0;" edge="1" parent="1">
          <mxGeometry relative="1" as="geometry">
            <mxPoint x="-620" y="270.3333333333335" as="targetPoint" />
            <mxPoint x="-620" y="270" as="sourcePoint" />
          </mxGeometry>
        </mxCell>
        <mxCell id="r6hjS2Dqo3O1j0TEXytj-172" style="edgeStyle=orthogonalEdgeStyle;rounded=0;orthogonalLoop=1;jettySize=auto;html=1;exitX=0;exitY=0.7;exitDx=0;exitDy=0;entryX=1;entryY=0.5;entryDx=0;entryDy=0;" edge="1" parent="1" source="r6hjS2Dqo3O1j0TEXytj-23" target="r6hjS2Dqo3O1j0TEXytj-166">
          <mxGeometry relative="1" as="geometry">
            <Array as="points">
              <mxPoint x="570" y="230" />
              <mxPoint x="480" y="230" />
              <mxPoint x="480" y="805" />
            </Array>
          </mxGeometry>
        </mxCell>
        <mxCell id="r6hjS2Dqo3O1j0TEXytj-23" value="USER DB ( RDBMS)" style="shape=datastore;whiteSpace=wrap;html=1;" vertex="1" parent="1">
          <mxGeometry x="570" y="152.5" width="94.34" height="65" as="geometry" />
        </mxCell>
        <mxCell id="r6hjS2Dqo3O1j0TEXytj-24" value="STORE IN DB" style="text;html=1;align=center;verticalAlign=middle;resizable=0;points=[];autosize=1;strokeColor=none;fillColor=none;" vertex="1" parent="1">
          <mxGeometry x="410" y="152.5" width="100" height="30" as="geometry" />
        </mxCell>
        <mxCell id="r6hjS2Dqo3O1j0TEXytj-27" value="REGISTRATION" style="text;html=1;align=center;verticalAlign=middle;resizable=0;points=[];autosize=1;strokeColor=none;fillColor=none;" vertex="1" parent="1">
          <mxGeometry x="-449" y="150" width="110" height="30" as="geometry" />
        </mxCell>
        <mxCell id="r6hjS2Dqo3O1j0TEXytj-28" value="LOG IN" style="text;html=1;align=center;verticalAlign=middle;resizable=0;points=[];autosize=1;strokeColor=none;fillColor=none;" vertex="1" parent="1">
          <mxGeometry x="-403" y="260" width="60" height="30" as="geometry" />
        </mxCell>
        <mxCell id="r6hjS2Dqo3O1j0TEXytj-217" style="edgeStyle=orthogonalEdgeStyle;rounded=0;orthogonalLoop=1;jettySize=auto;html=1;exitX=0.5;exitY=1;exitDx=0;exitDy=0;entryX=1;entryY=1;entryDx=0;entryDy=0;" edge="1" parent="1" source="r6hjS2Dqo3O1j0TEXytj-31" target="r6hjS2Dqo3O1j0TEXytj-202">
          <mxGeometry relative="1" as="geometry">
            <mxPoint x="-270" y="1630" as="targetPoint" />
            <Array as="points">
              <mxPoint x="777" y="1340" />
              <mxPoint x="-273" y="1340" />
            </Array>
          </mxGeometry>
        </mxCell>
        <mxCell id="r6hjS2Dqo3O1j0TEXytj-31" value="COURSE DB ( NON-RDBMS )" style="shape=datastore;whiteSpace=wrap;html=1;" vertex="1" parent="1">
          <mxGeometry x="730" y="902.5" width="94.34" height="65" as="geometry" />
        </mxCell>
        <mxCell id="r6hjS2Dqo3O1j0TEXytj-200" style="edgeStyle=orthogonalEdgeStyle;rounded=0;orthogonalLoop=1;jettySize=auto;html=1;exitX=1;exitY=0.5;exitDx=0;exitDy=0;entryX=0;entryY=0.5;entryDx=0;entryDy=0;" edge="1" parent="1" source="r6hjS2Dqo3O1j0TEXytj-54" target="r6hjS2Dqo3O1j0TEXytj-179">
          <mxGeometry relative="1" as="geometry">
            <Array as="points">
              <mxPoint x="-620" y="240" />
              <mxPoint x="-420" y="240" />
              <mxPoint x="-420" y="1030" />
            </Array>
          </mxGeometry>
        </mxCell>
        <mxCell id="r6hjS2Dqo3O1j0TEXytj-54" value="&lt;b&gt;STUDENT&lt;/b&gt;" style="rounded=0;whiteSpace=wrap;html=1;" vertex="1" parent="1">
          <mxGeometry x="-750" y="180" width="130" height="90" as="geometry" />
        </mxCell>
        <mxCell id="r6hjS2Dqo3O1j0TEXytj-114" value="&lt;font style=&quot;font-size: 36px;&quot;&gt;DFD_2&lt;/font&gt;" style="text;html=1;align=center;verticalAlign=middle;resizable=0;points=[];autosize=1;strokeColor=none;fillColor=none;" vertex="1" parent="1">
          <mxGeometry x="-55" y="2160" width="140" height="60" as="geometry" />
        </mxCell>
        <mxCell id="r6hjS2Dqo3O1j0TEXytj-124" style="edgeStyle=orthogonalEdgeStyle;rounded=0;orthogonalLoop=1;jettySize=auto;html=1;exitX=1;exitY=0.5;exitDx=0;exitDy=0;entryX=0;entryY=0.5;entryDx=0;entryDy=0;" edge="1" parent="1" source="r6hjS2Dqo3O1j0TEXytj-116" target="r6hjS2Dqo3O1j0TEXytj-119">
          <mxGeometry relative="1" as="geometry" />
        </mxCell>
        <mxCell id="r6hjS2Dqo3O1j0TEXytj-116" value="VERIFY EMAIL ID" style="ellipse;whiteSpace=wrap;html=1;aspect=fixed;" vertex="1" parent="1">
          <mxGeometry x="-130" y="135" width="100" height="100" as="geometry" />
        </mxCell>
        <mxCell id="r6hjS2Dqo3O1j0TEXytj-117" value="" style="endArrow=none;html=1;rounded=0;exitX=0.051;exitY=0.274;exitDx=0;exitDy=0;exitPerimeter=0;entryX=0.972;entryY=0.286;entryDx=0;entryDy=0;entryPerimeter=0;" edge="1" parent="1" source="r6hjS2Dqo3O1j0TEXytj-116" target="r6hjS2Dqo3O1j0TEXytj-116">
          <mxGeometry width="50" height="50" relative="1" as="geometry">
            <mxPoint x="-125" y="165" as="sourcePoint" />
            <mxPoint x="-45" y="165" as="targetPoint" />
          </mxGeometry>
        </mxCell>
        <mxCell id="r6hjS2Dqo3O1j0TEXytj-118" value="0.1.2" style="text;html=1;strokeColor=none;fillColor=none;align=center;verticalAlign=middle;whiteSpace=wrap;rounded=0;" vertex="1" parent="1">
          <mxGeometry x="-115" y="135" width="60" height="30" as="geometry" />
        </mxCell>
        <mxCell id="r6hjS2Dqo3O1j0TEXytj-119" value="VERIFY PHONE NUMBER" style="ellipse;whiteSpace=wrap;html=1;aspect=fixed;" vertex="1" parent="1">
          <mxGeometry x="70" y="135" width="100" height="100" as="geometry" />
        </mxCell>
        <mxCell id="r6hjS2Dqo3O1j0TEXytj-120" value="" style="endArrow=none;html=1;rounded=0;exitX=0.051;exitY=0.274;exitDx=0;exitDy=0;exitPerimeter=0;entryX=0.972;entryY=0.286;entryDx=0;entryDy=0;entryPerimeter=0;" edge="1" parent="1" source="r6hjS2Dqo3O1j0TEXytj-119" target="r6hjS2Dqo3O1j0TEXytj-119">
          <mxGeometry width="50" height="50" relative="1" as="geometry">
            <mxPoint x="75" y="165" as="sourcePoint" />
            <mxPoint x="155" y="165" as="targetPoint" />
          </mxGeometry>
        </mxCell>
        <mxCell id="r6hjS2Dqo3O1j0TEXytj-121" value="0.1.3" style="text;html=1;strokeColor=none;fillColor=none;align=center;verticalAlign=middle;whiteSpace=wrap;rounded=0;" vertex="1" parent="1">
          <mxGeometry x="85" y="135" width="60" height="30" as="geometry" />
        </mxCell>
        <mxCell id="r6hjS2Dqo3O1j0TEXytj-125" value="VERIFY CREDENTIAL FROM DB" style="ellipse;whiteSpace=wrap;html=1;aspect=fixed;" vertex="1" parent="1">
          <mxGeometry x="-179.5" y="270" width="109" height="109" as="geometry" />
        </mxCell>
        <mxCell id="r6hjS2Dqo3O1j0TEXytj-126" value="" style="endArrow=none;html=1;rounded=0;exitX=0.051;exitY=0.274;exitDx=0;exitDy=0;exitPerimeter=0;entryX=0.972;entryY=0.286;entryDx=0;entryDy=0;entryPerimeter=0;" edge="1" parent="1" source="r6hjS2Dqo3O1j0TEXytj-125" target="r6hjS2Dqo3O1j0TEXytj-125">
          <mxGeometry width="50" height="50" relative="1" as="geometry">
            <mxPoint x="-165" y="301" as="sourcePoint" />
            <mxPoint x="-85" y="301" as="targetPoint" />
          </mxGeometry>
        </mxCell>
        <mxCell id="r6hjS2Dqo3O1j0TEXytj-127" value="0.2.2" style="text;html=1;strokeColor=none;fillColor=none;align=center;verticalAlign=middle;whiteSpace=wrap;rounded=0;" vertex="1" parent="1">
          <mxGeometry x="-155" y="271" width="60" height="30" as="geometry" />
        </mxCell>
        <mxCell id="r6hjS2Dqo3O1j0TEXytj-129" value="" style="edgeStyle=none;orthogonalLoop=1;jettySize=auto;html=1;endArrow=classic;startArrow=classic;endSize=8;startSize=8;rounded=0;exitX=1;exitY=0.5;exitDx=0;exitDy=0;entryX=0;entryY=0.7;entryDx=0;entryDy=0;" edge="1" parent="1" source="r6hjS2Dqo3O1j0TEXytj-125" target="r6hjS2Dqo3O1j0TEXytj-23">
          <mxGeometry width="100" relative="1" as="geometry">
            <mxPoint x="10" y="280" as="sourcePoint" />
            <mxPoint x="110" y="280" as="targetPoint" />
            <Array as="points">
              <mxPoint x="460" y="325" />
              <mxPoint x="460" y="200" />
            </Array>
          </mxGeometry>
        </mxCell>
        <mxCell id="r6hjS2Dqo3O1j0TEXytj-130" value="VERIFY DATA" style="text;html=1;align=center;verticalAlign=middle;resizable=0;points=[];autosize=1;strokeColor=none;fillColor=none;" vertex="1" parent="1">
          <mxGeometry x="-30" y="298" width="100" height="30" as="geometry" />
        </mxCell>
        <mxCell id="r6hjS2Dqo3O1j0TEXytj-131" value="RESPONSE" style="text;html=1;align=center;verticalAlign=middle;resizable=0;points=[];autosize=1;strokeColor=none;fillColor=none;" vertex="1" parent="1">
          <mxGeometry x="70" y="328" width="90" height="30" as="geometry" />
        </mxCell>
        <mxCell id="r6hjS2Dqo3O1j0TEXytj-132" style="edgeStyle=orthogonalEdgeStyle;rounded=0;orthogonalLoop=1;jettySize=auto;html=1;exitX=1;exitY=0.5;exitDx=0;exitDy=0;entryX=0.026;entryY=0.4;entryDx=0;entryDy=0;entryPerimeter=0;" edge="1" parent="1" source="r6hjS2Dqo3O1j0TEXytj-8" target="r6hjS2Dqo3O1j0TEXytj-125">
          <mxGeometry relative="1" as="geometry" />
        </mxCell>
        <mxCell id="r6hjS2Dqo3O1j0TEXytj-133" value="RESET PASSWORD" style="ellipse;whiteSpace=wrap;html=1;aspect=fixed;" vertex="1" parent="1">
          <mxGeometry x="-254" y="431" width="90" height="90" as="geometry" />
        </mxCell>
        <mxCell id="r6hjS2Dqo3O1j0TEXytj-134" value="" style="endArrow=none;html=1;rounded=0;exitX=0.051;exitY=0.274;exitDx=0;exitDy=0;exitPerimeter=0;entryX=0.972;entryY=0.286;entryDx=0;entryDy=0;entryPerimeter=0;" edge="1" parent="1" source="r6hjS2Dqo3O1j0TEXytj-133" target="r6hjS2Dqo3O1j0TEXytj-133">
          <mxGeometry width="50" height="50" relative="1" as="geometry">
            <mxPoint x="-249" y="461" as="sourcePoint" />
            <mxPoint x="-169" y="461" as="targetPoint" />
          </mxGeometry>
        </mxCell>
        <mxCell id="r6hjS2Dqo3O1j0TEXytj-135" value="0.2.3" style="text;html=1;strokeColor=none;fillColor=none;align=center;verticalAlign=middle;whiteSpace=wrap;rounded=0;" vertex="1" parent="1">
          <mxGeometry x="-239" y="431" width="60" height="30" as="geometry" />
        </mxCell>
        <mxCell id="r6hjS2Dqo3O1j0TEXytj-151" style="edgeStyle=orthogonalEdgeStyle;rounded=0;orthogonalLoop=1;jettySize=auto;html=1;exitX=1;exitY=1;exitDx=0;exitDy=0;entryX=0;entryY=0.5;entryDx=0;entryDy=0;" edge="1" parent="1" source="r6hjS2Dqo3O1j0TEXytj-136" target="r6hjS2Dqo3O1j0TEXytj-142">
          <mxGeometry relative="1" as="geometry" />
        </mxCell>
        <mxCell id="r6hjS2Dqo3O1j0TEXytj-136" value="CHECK IF EXISTING USER" style="ellipse;whiteSpace=wrap;html=1;aspect=fixed;" vertex="1" parent="1">
          <mxGeometry x="-89.5" y="430" width="109" height="109" as="geometry" />
        </mxCell>
        <mxCell id="r6hjS2Dqo3O1j0TEXytj-137" value="" style="endArrow=none;html=1;rounded=0;exitX=0.051;exitY=0.274;exitDx=0;exitDy=0;exitPerimeter=0;entryX=0.972;entryY=0.286;entryDx=0;entryDy=0;entryPerimeter=0;" edge="1" parent="1" source="r6hjS2Dqo3O1j0TEXytj-136" target="r6hjS2Dqo3O1j0TEXytj-136">
          <mxGeometry width="50" height="50" relative="1" as="geometry">
            <mxPoint x="-75" y="461" as="sourcePoint" />
            <mxPoint x="5" y="461" as="targetPoint" />
          </mxGeometry>
        </mxCell>
        <mxCell id="r6hjS2Dqo3O1j0TEXytj-138" value="0.2.4" style="text;html=1;strokeColor=none;fillColor=none;align=center;verticalAlign=middle;whiteSpace=wrap;rounded=0;" vertex="1" parent="1">
          <mxGeometry x="-65" y="431" width="60" height="30" as="geometry" />
        </mxCell>
        <mxCell id="r6hjS2Dqo3O1j0TEXytj-139" style="edgeStyle=orthogonalEdgeStyle;rounded=0;orthogonalLoop=1;jettySize=auto;html=1;exitX=1;exitY=0.5;exitDx=0;exitDy=0;entryX=0.026;entryY=0.4;entryDx=0;entryDy=0;entryPerimeter=0;" edge="1" parent="1" source="r6hjS2Dqo3O1j0TEXytj-133" target="r6hjS2Dqo3O1j0TEXytj-136">
          <mxGeometry relative="1" as="geometry" />
        </mxCell>
        <mxCell id="r6hjS2Dqo3O1j0TEXytj-142" value="SEND PASSWORD RESET LINK VIA REG. EMAIL" style="ellipse;whiteSpace=wrap;html=1;aspect=fixed;" vertex="1" parent="1">
          <mxGeometry x="61" y="510" width="118" height="118" as="geometry" />
        </mxCell>
        <mxCell id="r6hjS2Dqo3O1j0TEXytj-143" value="" style="endArrow=none;html=1;rounded=0;exitX=0.051;exitY=0.274;exitDx=0;exitDy=0;exitPerimeter=0;entryX=0.972;entryY=0.286;entryDx=0;entryDy=0;entryPerimeter=0;" edge="1" parent="1" source="r6hjS2Dqo3O1j0TEXytj-142" target="r6hjS2Dqo3O1j0TEXytj-142">
          <mxGeometry width="50" height="50" relative="1" as="geometry">
            <mxPoint x="79" y="540" as="sourcePoint" />
            <mxPoint x="159" y="540" as="targetPoint" />
          </mxGeometry>
        </mxCell>
        <mxCell id="r6hjS2Dqo3O1j0TEXytj-144" value="0.2.5" style="text;html=1;strokeColor=none;fillColor=none;align=center;verticalAlign=middle;whiteSpace=wrap;rounded=0;" vertex="1" parent="1">
          <mxGeometry x="89" y="510" width="60" height="30" as="geometry" />
        </mxCell>
        <mxCell id="r6hjS2Dqo3O1j0TEXytj-149" value="" style="edgeStyle=none;orthogonalLoop=1;jettySize=auto;html=1;endArrow=classic;startArrow=classic;endSize=8;startSize=8;rounded=0;exitX=1;exitY=0.5;exitDx=0;exitDy=0;entryX=0;entryY=0.7;entryDx=0;entryDy=0;" edge="1" parent="1" source="r6hjS2Dqo3O1j0TEXytj-136" target="r6hjS2Dqo3O1j0TEXytj-23">
          <mxGeometry width="100" relative="1" as="geometry">
            <mxPoint x="10" y="480" as="sourcePoint" />
            <mxPoint x="110" y="480" as="targetPoint" />
            <Array as="points">
              <mxPoint x="210" y="340" />
              <mxPoint x="470" y="340" />
              <mxPoint x="470" y="220" />
              <mxPoint x="560" y="220" />
            </Array>
          </mxGeometry>
        </mxCell>
        <mxCell id="r6hjS2Dqo3O1j0TEXytj-150" value="RESPONSE" style="text;html=1;align=center;verticalAlign=middle;resizable=0;points=[];autosize=1;strokeColor=none;fillColor=none;" vertex="1" parent="1">
          <mxGeometry x="30" y="474" width="90" height="30" as="geometry" />
        </mxCell>
        <mxCell id="r6hjS2Dqo3O1j0TEXytj-176" style="edgeStyle=orthogonalEdgeStyle;rounded=0;orthogonalLoop=1;jettySize=auto;html=1;exitX=0;exitY=0.5;exitDx=0;exitDy=0;entryX=1;entryY=0.5;entryDx=0;entryDy=0;" edge="1" parent="1" source="r6hjS2Dqo3O1j0TEXytj-152" target="r6hjS2Dqo3O1j0TEXytj-169">
          <mxGeometry relative="1" as="geometry" />
        </mxCell>
        <mxCell id="r6hjS2Dqo3O1j0TEXytj-152" value="SEARCH COURSE" style="ellipse;whiteSpace=wrap;html=1;aspect=fixed;" vertex="1" parent="1">
          <mxGeometry x="40" y="710" width="90" height="90" as="geometry" />
        </mxCell>
        <mxCell id="r6hjS2Dqo3O1j0TEXytj-153" value="" style="endArrow=none;html=1;rounded=0;exitX=0.051;exitY=0.274;exitDx=0;exitDy=0;exitPerimeter=0;entryX=0.972;entryY=0.286;entryDx=0;entryDy=0;entryPerimeter=0;" edge="1" parent="1" source="r6hjS2Dqo3O1j0TEXytj-152" target="r6hjS2Dqo3O1j0TEXytj-152">
          <mxGeometry width="50" height="50" relative="1" as="geometry">
            <mxPoint x="45" y="740" as="sourcePoint" />
            <mxPoint x="125" y="740" as="targetPoint" />
          </mxGeometry>
        </mxCell>
        <mxCell id="r6hjS2Dqo3O1j0TEXytj-154" value="0.3.1" style="text;html=1;strokeColor=none;fillColor=none;align=center;verticalAlign=middle;whiteSpace=wrap;rounded=0;" vertex="1" parent="1">
          <mxGeometry x="55" y="710" width="60" height="30" as="geometry" />
        </mxCell>
        <mxCell id="r6hjS2Dqo3O1j0TEXytj-155" value="&lt;span style=&quot;color: rgb(0, 0, 0); font-family: Helvetica; font-size: 12px; font-style: normal; font-variant-ligatures: normal; font-variant-caps: normal; font-weight: 400; letter-spacing: normal; orphans: 2; text-align: center; text-indent: 0px; text-transform: none; widows: 2; word-spacing: 0px; -webkit-text-stroke-width: 0px; background-color: rgb(251, 251, 251); text-decoration-thickness: initial; text-decoration-style: initial; text-decoration-color: initial; float: none; display: inline !important;&quot;&gt;BROWSE COURSE&lt;/span&gt;" style="text;whiteSpace=wrap;html=1;" vertex="1" parent="1">
          <mxGeometry x="-360" y="785" width="140" height="40" as="geometry" />
        </mxCell>
        <mxCell id="r6hjS2Dqo3O1j0TEXytj-177" style="edgeStyle=orthogonalEdgeStyle;rounded=0;orthogonalLoop=1;jettySize=auto;html=1;exitX=0;exitY=0.5;exitDx=0;exitDy=0;entryX=1;entryY=0.5;entryDx=0;entryDy=0;" edge="1" parent="1" source="r6hjS2Dqo3O1j0TEXytj-156" target="r6hjS2Dqo3O1j0TEXytj-169">
          <mxGeometry relative="1" as="geometry">
            <mxPoint x="-50" y="870" as="targetPoint" />
          </mxGeometry>
        </mxCell>
        <mxCell id="r6hjS2Dqo3O1j0TEXytj-156" value="SELECT GENRE" style="ellipse;whiteSpace=wrap;html=1;aspect=fixed;" vertex="1" parent="1">
          <mxGeometry x="40" y="820" width="90" height="90" as="geometry" />
        </mxCell>
        <mxCell id="r6hjS2Dqo3O1j0TEXytj-157" value="" style="endArrow=none;html=1;rounded=0;exitX=0.051;exitY=0.274;exitDx=0;exitDy=0;exitPerimeter=0;entryX=0.972;entryY=0.286;entryDx=0;entryDy=0;entryPerimeter=0;" edge="1" parent="1" source="r6hjS2Dqo3O1j0TEXytj-156" target="r6hjS2Dqo3O1j0TEXytj-156">
          <mxGeometry width="50" height="50" relative="1" as="geometry">
            <mxPoint x="45" y="850" as="sourcePoint" />
            <mxPoint x="125" y="850" as="targetPoint" />
          </mxGeometry>
        </mxCell>
        <mxCell id="r6hjS2Dqo3O1j0TEXytj-158" value="0.3.2" style="text;html=1;strokeColor=none;fillColor=none;align=center;verticalAlign=middle;whiteSpace=wrap;rounded=0;" vertex="1" parent="1">
          <mxGeometry x="55" y="820" width="60" height="30" as="geometry" />
        </mxCell>
        <mxCell id="r6hjS2Dqo3O1j0TEXytj-166" value="FETCH FROM DB" style="ellipse;whiteSpace=wrap;html=1;aspect=fixed;" vertex="1" parent="1">
          <mxGeometry x="200" y="760" width="90" height="90" as="geometry" />
        </mxCell>
        <mxCell id="r6hjS2Dqo3O1j0TEXytj-167" value="" style="endArrow=none;html=1;rounded=0;exitX=0.051;exitY=0.274;exitDx=0;exitDy=0;exitPerimeter=0;entryX=0.972;entryY=0.286;entryDx=0;entryDy=0;entryPerimeter=0;" edge="1" parent="1" source="r6hjS2Dqo3O1j0TEXytj-166" target="r6hjS2Dqo3O1j0TEXytj-166">
          <mxGeometry width="50" height="50" relative="1" as="geometry">
            <mxPoint x="205" y="790" as="sourcePoint" />
            <mxPoint x="285" y="790" as="targetPoint" />
          </mxGeometry>
        </mxCell>
        <mxCell id="r6hjS2Dqo3O1j0TEXytj-168" value="0.3.3" style="text;html=1;strokeColor=none;fillColor=none;align=center;verticalAlign=middle;whiteSpace=wrap;rounded=0;" vertex="1" parent="1">
          <mxGeometry x="215" y="760" width="60" height="30" as="geometry" />
        </mxCell>
        <mxCell id="r6hjS2Dqo3O1j0TEXytj-178" style="edgeStyle=orthogonalEdgeStyle;rounded=0;orthogonalLoop=1;jettySize=auto;html=1;entryX=1;entryY=0.5;entryDx=0;entryDy=0;" edge="1" parent="1" source="r6hjS2Dqo3O1j0TEXytj-169" target="r6hjS2Dqo3O1j0TEXytj-54">
          <mxGeometry relative="1" as="geometry">
            <mxPoint x="-290" y="814.9999999999998" as="targetPoint" />
            <Array as="points">
              <mxPoint x="-410" y="815" />
              <mxPoint x="-410" y="225" />
            </Array>
          </mxGeometry>
        </mxCell>
        <mxCell id="r6hjS2Dqo3O1j0TEXytj-169" value="SORT COURSES&amp;nbsp;" style="ellipse;whiteSpace=wrap;html=1;aspect=fixed;" vertex="1" parent="1">
          <mxGeometry x="-145" y="770" width="90" height="90" as="geometry" />
        </mxCell>
        <mxCell id="r6hjS2Dqo3O1j0TEXytj-170" value="" style="endArrow=none;html=1;rounded=0;exitX=0.051;exitY=0.274;exitDx=0;exitDy=0;exitPerimeter=0;entryX=0.972;entryY=0.286;entryDx=0;entryDy=0;entryPerimeter=0;" edge="1" parent="1" source="r6hjS2Dqo3O1j0TEXytj-169" target="r6hjS2Dqo3O1j0TEXytj-169">
          <mxGeometry width="50" height="50" relative="1" as="geometry">
            <mxPoint x="-140" y="800" as="sourcePoint" />
            <mxPoint x="-60" y="800" as="targetPoint" />
          </mxGeometry>
        </mxCell>
        <mxCell id="r6hjS2Dqo3O1j0TEXytj-171" value="0.3.4" style="text;html=1;strokeColor=none;fillColor=none;align=center;verticalAlign=middle;whiteSpace=wrap;rounded=0;" vertex="1" parent="1">
          <mxGeometry x="-130" y="770" width="60" height="30" as="geometry" />
        </mxCell>
        <mxCell id="r6hjS2Dqo3O1j0TEXytj-174" value="" style="edgeStyle=none;orthogonalLoop=1;jettySize=auto;html=1;endArrow=classic;startArrow=classic;endSize=8;startSize=8;rounded=0;exitX=1;exitY=0.5;exitDx=0;exitDy=0;entryX=0;entryY=0.5;entryDx=0;entryDy=0;" edge="1" parent="1" source="r6hjS2Dqo3O1j0TEXytj-152" target="r6hjS2Dqo3O1j0TEXytj-166">
          <mxGeometry width="100" relative="1" as="geometry">
            <mxPoint x="200" y="720" as="sourcePoint" />
            <mxPoint x="300" y="720" as="targetPoint" />
            <Array as="points" />
          </mxGeometry>
        </mxCell>
        <mxCell id="r6hjS2Dqo3O1j0TEXytj-175" value="" style="edgeStyle=none;orthogonalLoop=1;jettySize=auto;html=1;endArrow=classic;startArrow=classic;endSize=8;startSize=8;rounded=0;exitX=1;exitY=0.5;exitDx=0;exitDy=0;entryX=0;entryY=0.5;entryDx=0;entryDy=0;" edge="1" parent="1" source="r6hjS2Dqo3O1j0TEXytj-156" target="r6hjS2Dqo3O1j0TEXytj-166">
          <mxGeometry width="100" relative="1" as="geometry">
            <mxPoint x="140" y="765" as="sourcePoint" />
            <mxPoint x="180" y="800" as="targetPoint" />
            <Array as="points" />
          </mxGeometry>
        </mxCell>
        <mxCell id="r6hjS2Dqo3O1j0TEXytj-183" style="edgeStyle=orthogonalEdgeStyle;rounded=0;orthogonalLoop=1;jettySize=auto;html=1;exitX=1;exitY=0.5;exitDx=0;exitDy=0;entryX=0;entryY=0.5;entryDx=0;entryDy=0;" edge="1" parent="1" source="r6hjS2Dqo3O1j0TEXytj-179" target="r6hjS2Dqo3O1j0TEXytj-192">
          <mxGeometry relative="1" as="geometry">
            <mxPoint x="-25.5" y="1025.8181818181818" as="targetPoint" />
            <Array as="points">
              <mxPoint x="-52.5" y="1030" />
              <mxPoint x="-52.5" y="1026" />
              <mxPoint x="9.5" y="1026" />
            </Array>
          </mxGeometry>
        </mxCell>
        <mxCell id="r6hjS2Dqo3O1j0TEXytj-179" value="SELECT COURSES FROM CART" style="ellipse;whiteSpace=wrap;html=1;aspect=fixed;" vertex="1" parent="1">
          <mxGeometry x="-179.5" y="980" width="100" height="100" as="geometry" />
        </mxCell>
        <mxCell id="r6hjS2Dqo3O1j0TEXytj-180" value="" style="endArrow=none;html=1;rounded=0;exitX=0.051;exitY=0.274;exitDx=0;exitDy=0;exitPerimeter=0;entryX=0.972;entryY=0.286;entryDx=0;entryDy=0;entryPerimeter=0;" edge="1" parent="1" source="r6hjS2Dqo3O1j0TEXytj-179" target="r6hjS2Dqo3O1j0TEXytj-179">
          <mxGeometry width="50" height="50" relative="1" as="geometry">
            <mxPoint x="-157.5" y="951" as="sourcePoint" />
            <mxPoint x="-77.5" y="951" as="targetPoint" />
          </mxGeometry>
        </mxCell>
        <mxCell id="r6hjS2Dqo3O1j0TEXytj-181" value="0.4.1" style="text;html=1;strokeColor=none;fillColor=none;align=center;verticalAlign=middle;whiteSpace=wrap;rounded=0;" vertex="1" parent="1">
          <mxGeometry x="-159.5" y="980" width="60" height="30" as="geometry" />
        </mxCell>
        <mxCell id="r6hjS2Dqo3O1j0TEXytj-191" style="edgeStyle=orthogonalEdgeStyle;rounded=0;orthogonalLoop=1;jettySize=auto;html=1;exitX=1;exitY=0.5;exitDx=0;exitDy=0;" edge="1" parent="1" source="r6hjS2Dqo3O1j0TEXytj-192">
          <mxGeometry relative="1" as="geometry">
            <mxPoint x="163.5" y="1025.8181818181818" as="targetPoint" />
          </mxGeometry>
        </mxCell>
        <mxCell id="r6hjS2Dqo3O1j0TEXytj-192" value="ENTER PAYMENT DETAILS" style="ellipse;whiteSpace=wrap;html=1;aspect=fixed;" vertex="1" parent="1">
          <mxGeometry x="10.5" y="980" width="100" height="100" as="geometry" />
        </mxCell>
        <mxCell id="r6hjS2Dqo3O1j0TEXytj-193" value="" style="endArrow=none;html=1;rounded=0;exitX=0.051;exitY=0.274;exitDx=0;exitDy=0;exitPerimeter=0;entryX=0.972;entryY=0.286;entryDx=0;entryDy=0;entryPerimeter=0;" edge="1" parent="1" source="r6hjS2Dqo3O1j0TEXytj-192" target="r6hjS2Dqo3O1j0TEXytj-192">
          <mxGeometry width="50" height="50" relative="1" as="geometry">
            <mxPoint x="31.5" y="951" as="sourcePoint" />
            <mxPoint x="111.5" y="951" as="targetPoint" />
          </mxGeometry>
        </mxCell>
        <mxCell id="r6hjS2Dqo3O1j0TEXytj-194" value="0.4.2" style="text;html=1;strokeColor=none;fillColor=none;align=center;verticalAlign=middle;whiteSpace=wrap;rounded=0;" vertex="1" parent="1">
          <mxGeometry x="29.5" y="980" width="60" height="30" as="geometry" />
        </mxCell>
        <mxCell id="r6hjS2Dqo3O1j0TEXytj-195" style="edgeStyle=orthogonalEdgeStyle;rounded=0;orthogonalLoop=1;jettySize=auto;html=1;exitX=1;exitY=0.5;exitDx=0;exitDy=0;entryX=0;entryY=0.7;entryDx=0;entryDy=0;" edge="1" parent="1" source="r6hjS2Dqo3O1j0TEXytj-196" target="r6hjS2Dqo3O1j0TEXytj-23">
          <mxGeometry relative="1" as="geometry">
            <mxPoint x="162" y="1025.8181818181818" as="targetPoint" />
            <Array as="points">
              <mxPoint x="490" y="1030" />
              <mxPoint x="490" y="198" />
            </Array>
          </mxGeometry>
        </mxCell>
        <mxCell id="r6hjS2Dqo3O1j0TEXytj-196" value="PROCEED FOR PAYMENT" style="ellipse;whiteSpace=wrap;html=1;aspect=fixed;" vertex="1" parent="1">
          <mxGeometry x="162.5" y="980" width="100" height="100" as="geometry" />
        </mxCell>
        <mxCell id="r6hjS2Dqo3O1j0TEXytj-197" value="" style="endArrow=none;html=1;rounded=0;exitX=0.051;exitY=0.274;exitDx=0;exitDy=0;exitPerimeter=0;entryX=0.972;entryY=0.286;entryDx=0;entryDy=0;entryPerimeter=0;" edge="1" parent="1" source="r6hjS2Dqo3O1j0TEXytj-196" target="r6hjS2Dqo3O1j0TEXytj-196">
          <mxGeometry width="50" height="50" relative="1" as="geometry">
            <mxPoint x="184.5" y="951" as="sourcePoint" />
            <mxPoint x="264.5" y="951" as="targetPoint" />
          </mxGeometry>
        </mxCell>
        <mxCell id="r6hjS2Dqo3O1j0TEXytj-198" value="0.4.3" style="text;html=1;strokeColor=none;fillColor=none;align=center;verticalAlign=middle;whiteSpace=wrap;rounded=0;" vertex="1" parent="1">
          <mxGeometry x="182.5" y="980" width="60" height="30" as="geometry" />
        </mxCell>
        <mxCell id="r6hjS2Dqo3O1j0TEXytj-199" value="UPDATE COURSE LIST &lt;br&gt;ASSOCIATED WITH &lt;br&gt;THE USER" style="text;html=1;align=center;verticalAlign=middle;resizable=0;points=[];autosize=1;strokeColor=none;fillColor=none;" vertex="1" parent="1">
          <mxGeometry x="340" y="967.5" width="150" height="60" as="geometry" />
        </mxCell>
        <mxCell id="r6hjS2Dqo3O1j0TEXytj-201" value="BUY COURSES" style="text;html=1;align=center;verticalAlign=middle;resizable=0;points=[];autosize=1;strokeColor=none;fillColor=none;" vertex="1" parent="1">
          <mxGeometry x="-370" y="997.5" width="110" height="30" as="geometry" />
        </mxCell>
        <mxCell id="r6hjS2Dqo3O1j0TEXytj-211" style="edgeStyle=orthogonalEdgeStyle;rounded=0;orthogonalLoop=1;jettySize=auto;html=1;exitX=0;exitY=0.5;exitDx=0;exitDy=0;entryX=1;entryY=0.75;entryDx=0;entryDy=0;" edge="1" parent="1" source="r6hjS2Dqo3O1j0TEXytj-202" target="r6hjS2Dqo3O1j0TEXytj-54">
          <mxGeometry relative="1" as="geometry">
            <Array as="points">
              <mxPoint x="-430" y="1265" />
              <mxPoint x="-430" y="247" />
            </Array>
          </mxGeometry>
        </mxCell>
        <mxCell id="r6hjS2Dqo3O1j0TEXytj-212" style="edgeStyle=orthogonalEdgeStyle;rounded=0;orthogonalLoop=1;jettySize=auto;html=1;exitX=1;exitY=0.5;exitDx=0;exitDy=0;entryX=0;entryY=0.5;entryDx=0;entryDy=0;" edge="1" parent="1" source="r6hjS2Dqo3O1j0TEXytj-202" target="r6hjS2Dqo3O1j0TEXytj-205">
          <mxGeometry relative="1" as="geometry" />
        </mxCell>
        <mxCell id="r6hjS2Dqo3O1j0TEXytj-202" value="ACCESS COURSE CONTENT" style="ellipse;whiteSpace=wrap;html=1;aspect=fixed;" vertex="1" parent="1">
          <mxGeometry x="-350" y="1220" width="90" height="90" as="geometry" />
        </mxCell>
        <mxCell id="r6hjS2Dqo3O1j0TEXytj-203" value="" style="endArrow=none;html=1;rounded=0;exitX=0.051;exitY=0.274;exitDx=0;exitDy=0;exitPerimeter=0;entryX=0.972;entryY=0.286;entryDx=0;entryDy=0;entryPerimeter=0;" edge="1" parent="1" source="r6hjS2Dqo3O1j0TEXytj-202" target="r6hjS2Dqo3O1j0TEXytj-202">
          <mxGeometry width="50" height="50" relative="1" as="geometry">
            <mxPoint x="-333" y="1191" as="sourcePoint" />
            <mxPoint x="-253" y="1191" as="targetPoint" />
          </mxGeometry>
        </mxCell>
        <mxCell id="r6hjS2Dqo3O1j0TEXytj-204" value="0.5.1" style="text;html=1;strokeColor=none;fillColor=none;align=center;verticalAlign=middle;whiteSpace=wrap;rounded=0;" vertex="1" parent="1">
          <mxGeometry x="-333" y="1220" width="60" height="30" as="geometry" />
        </mxCell>
        <mxCell id="r6hjS2Dqo3O1j0TEXytj-213" style="edgeStyle=orthogonalEdgeStyle;rounded=0;orthogonalLoop=1;jettySize=auto;html=1;exitX=1;exitY=0.5;exitDx=0;exitDy=0;entryX=0;entryY=0.5;entryDx=0;entryDy=0;" edge="1" parent="1" source="r6hjS2Dqo3O1j0TEXytj-205" target="r6hjS2Dqo3O1j0TEXytj-208">
          <mxGeometry relative="1" as="geometry" />
        </mxCell>
        <mxCell id="r6hjS2Dqo3O1j0TEXytj-205" value="MARK CONTENT AS READ" style="ellipse;whiteSpace=wrap;html=1;aspect=fixed;" vertex="1" parent="1">
          <mxGeometry x="-130" y="1220" width="90" height="90" as="geometry" />
        </mxCell>
        <mxCell id="r6hjS2Dqo3O1j0TEXytj-206" value="" style="endArrow=none;html=1;rounded=0;exitX=0.051;exitY=0.274;exitDx=0;exitDy=0;exitPerimeter=0;entryX=0.972;entryY=0.286;entryDx=0;entryDy=0;entryPerimeter=0;" edge="1" parent="1" source="r6hjS2Dqo3O1j0TEXytj-205" target="r6hjS2Dqo3O1j0TEXytj-205">
          <mxGeometry width="50" height="50" relative="1" as="geometry">
            <mxPoint x="-113" y="1191" as="sourcePoint" />
            <mxPoint x="-33" y="1191" as="targetPoint" />
          </mxGeometry>
        </mxCell>
        <mxCell id="r6hjS2Dqo3O1j0TEXytj-207" value="0.5.2" style="text;html=1;strokeColor=none;fillColor=none;align=center;verticalAlign=middle;whiteSpace=wrap;rounded=0;" vertex="1" parent="1">
          <mxGeometry x="-113" y="1220" width="60" height="30" as="geometry" />
        </mxCell>
        <mxCell id="r6hjS2Dqo3O1j0TEXytj-214" style="edgeStyle=orthogonalEdgeStyle;rounded=0;orthogonalLoop=1;jettySize=auto;html=1;exitX=1;exitY=0.5;exitDx=0;exitDy=0;entryX=0;entryY=0.5;entryDx=0;entryDy=0;" edge="1" parent="1" source="r6hjS2Dqo3O1j0TEXytj-208" target="r6hjS2Dqo3O1j0TEXytj-23">
          <mxGeometry relative="1" as="geometry">
            <Array as="points">
              <mxPoint x="500" y="1265" />
              <mxPoint x="500" y="250" />
              <mxPoint x="570" y="250" />
            </Array>
          </mxGeometry>
        </mxCell>
        <mxCell id="r6hjS2Dqo3O1j0TEXytj-208" value="UPDATE PROGRESS BAR" style="ellipse;whiteSpace=wrap;html=1;aspect=fixed;" vertex="1" parent="1">
          <mxGeometry x="149" y="1220" width="90" height="90" as="geometry" />
        </mxCell>
        <mxCell id="r6hjS2Dqo3O1j0TEXytj-209" value="" style="endArrow=none;html=1;rounded=0;exitX=0.051;exitY=0.274;exitDx=0;exitDy=0;exitPerimeter=0;entryX=0.972;entryY=0.286;entryDx=0;entryDy=0;entryPerimeter=0;" edge="1" parent="1" source="r6hjS2Dqo3O1j0TEXytj-208" target="r6hjS2Dqo3O1j0TEXytj-208">
          <mxGeometry width="50" height="50" relative="1" as="geometry">
            <mxPoint x="166" y="1191" as="sourcePoint" />
            <mxPoint x="246" y="1191" as="targetPoint" />
          </mxGeometry>
        </mxCell>
        <mxCell id="r6hjS2Dqo3O1j0TEXytj-210" value="0.5.3" style="text;html=1;strokeColor=none;fillColor=none;align=center;verticalAlign=middle;whiteSpace=wrap;rounded=0;" vertex="1" parent="1">
          <mxGeometry x="166" y="1220" width="60" height="30" as="geometry" />
        </mxCell>
        <mxCell id="r6hjS2Dqo3O1j0TEXytj-215" value="SAVE PROGRESS TO DB" style="text;html=1;align=center;verticalAlign=middle;resizable=0;points=[];autosize=1;strokeColor=none;fillColor=none;" vertex="1" parent="1">
          <mxGeometry x="259" y="1230" width="170" height="30" as="geometry" />
        </mxCell>
        <mxCell id="r6hjS2Dqo3O1j0TEXytj-218" value="FETCH CONTENT FROM DB" style="text;html=1;align=center;verticalAlign=middle;resizable=0;points=[];autosize=1;strokeColor=none;fillColor=none;" vertex="1" parent="1">
          <mxGeometry x="-200" y="1338" width="180" height="30" as="geometry" />
        </mxCell>
      </root>
    </mxGraphModel>
  </diagram>
</mxfile>
